<svg width="200" height="67" viewBox="0 0 200 67" fill="none" xmlns="http://www.w3.org/2000/svg">
<g clip-path="url(#clip0_111_29453)">
<path d="M31.6011 0C14.0029 1.03949 0 15.5924 0 33.4527C0 51.3132 14.0029 65.866 31.6011 66.9055V67H107.905V0H31.6011Z" fill="#0176FF"/>
<path fill-rule="evenodd" clip-rule="evenodd" d="M89.9873 33.4527C89.9873 15.5924 97.2598 1.03949 106.4 0H115.284H141.239H168.409C185.985 1.03949 199.969 15.5924 199.969 33.4527C199.969 51.3132 185.985 65.866 168.409 66.9055V67L141.239 66.9575V67H106.4V66.9055C97.2598 65.866 89.9873 51.3132 89.9873 33.4527Z" fill="#FF0000"/>
<path d="M16.9961 22.0651H20.1755C20.1755 17.3841 20.2592 14.5419 20.4265 13.7061C20.6775 11.6999 21.5141 10.1952 22.9365 9.02494C24.3589 7.85467 26.367 7.26953 28.9607 7.26953C30.8014 7.26953 32.9767 7.6875 35.3194 8.5234V15.3779C33.9808 15.0436 32.9767 14.7927 32.1401 14.7927C31.0524 14.7927 30.2994 15.0436 29.7974 15.4615C29.4626 15.7958 29.2953 16.4645 29.2953 17.4677V21.9816H34.9848V29.5884H29.2953V57.8422H27.5537C23.4788 57.8422 20.1755 54.542 20.1755 50.4709V29.6719H16.9961V22.0651Z" fill="white"/>
<path d="M38.499 22.0664H47.5353V57.9269H38.499V22.0664Z" fill="white"/>
<path d="M55.0654 22.0659H64.1015V25.7439C66.1096 23.9885 68.0339 22.8182 69.6237 22.1495C71.2134 21.4808 72.9704 21.1465 74.7275 21.1465C78.3252 21.1465 81.3372 22.4003 83.7636 24.9081C85.8554 26.9979 86.8594 30.1742 86.8594 34.2702V57.9266H77.9905V42.2113C77.9905 37.9482 77.8231 35.1062 77.4048 33.6851C76.9865 32.264 76.3172 31.1774 75.3968 30.5086C74.4765 29.8399 73.3051 29.422 71.8827 29.422C70.042 29.422 68.536 30.0071 67.1973 31.261C65.8586 32.5148 65.022 34.1866 64.5198 36.2764C64.2689 37.3631 64.1015 39.7872 64.1015 43.5488V57.9266H55.0654V22.0659Z" fill="white"/>
<path d="M123.585 22.0665H132.621V57.927H123.585V54.1654C121.828 55.8372 120.071 57.0075 118.314 57.7598C116.557 58.5122 114.632 58.8466 112.541 58.8466C107.939 58.8466 103.923 57.0911 100.492 53.4967C97.1457 49.9023 95.3887 45.472 95.3887 40.1221C95.3887 34.6051 97.0621 30.0076 100.325 26.4967C103.588 22.9859 107.604 21.2305 112.29 21.2305C114.465 21.2305 116.473 21.6484 118.314 22.4844C120.238 23.3202 121.912 24.4906 123.585 26.1624V22.0665ZM114.13 29.5061C111.369 29.5061 109.027 30.5091 107.186 32.4317C105.345 34.4379 104.425 36.9456 104.425 39.9549C104.425 43.0479 105.345 45.6391 107.27 47.5617C109.11 49.5679 111.453 50.5709 114.214 50.5709C117.059 50.5709 119.401 49.5679 121.242 47.6453C123.083 45.6391 124.003 43.1314 124.003 39.9549C124.003 36.862 123.083 34.2707 121.242 32.3481C119.318 30.4255 116.975 29.5061 114.13 29.5061Z" fill="white"/>
<path d="M135.837 22.0664H144.874V57.9269H135.837V22.0664Z" fill="white"/>
<path d="M175.627 8.27344H176.23C180.888 8.27344 184.663 12.0452 184.663 16.6979V49.5858C184.663 54.2385 180.888 58.0101 176.23 58.0101H175.627V54.2485C173.869 55.9204 172.113 57.0907 170.356 57.843C168.599 58.5954 166.674 58.9297 164.582 58.9297C159.981 58.9297 155.964 57.1743 152.535 53.5798C149.188 49.9854 147.431 45.5551 147.431 40.2052C147.431 34.6882 149.104 30.0907 152.367 26.5799C155.63 23.069 159.647 21.3136 164.332 21.3136C166.507 21.3136 168.515 21.7317 170.356 22.5675C172.28 23.4034 173.954 24.5737 175.627 26.2455V8.27344ZM166.172 29.5056C163.411 29.5056 161.068 30.5087 159.228 32.4313C157.387 34.4375 156.466 36.9451 156.466 39.9545C156.466 43.0474 157.387 45.6387 159.312 47.5613C161.153 49.5675 163.495 50.5706 166.255 50.5706C169.101 50.5706 171.444 49.5675 173.284 47.6449C175.125 45.6387 176.045 43.131 176.045 39.9545C176.045 36.8616 175.125 34.2703 173.284 32.3477C171.36 30.4251 169.017 29.5056 166.172 29.5056Z" fill="white"/>
<path d="M140.712 16.9809C143.404 16.9809 145.587 14.8004 145.587 12.1106C145.587 9.42076 143.404 7.24023 140.712 7.24023C138.019 7.24023 135.837 9.42076 135.837 12.1106C135.837 14.8004 138.019 16.9809 140.712 16.9809Z" fill="white"/>
</g>
<defs>
<clipPath id="clip0_111_29453">
<rect width="200" height="67" fill="white"/>
</clipPath>
</defs>
</svg>
